<svg id="Layer_1" data-name="Layer 1" xmlns="http://www.w3.org/2000/svg" viewBox="0 0 512 512"><defs><style>.cls-1{fill:#f97316;}.cls-2{fill:none;stroke:#f97316;stroke-linecap:round;stroke-linejoin:round;stroke-width:15px;}</style></defs><rect class="cls-1" x="143.95" y="147.74" width="92.46" height="92.46" rx="2.45"/><rect class="cls-1" x="275.57" y="147.74" width="92.46" height="92.46" rx="2.45"/><path class="cls-1" d="M87.28,147.59v3.7h17.61v-3.7A35.13,35.13,0,0,1,133,113.24V95.46A52.63,52.63,0,0,0,87.28,147.59Zm17.61,95.8V239.7H87.28v3.69A52.58,52.58,0,0,0,133,295.53V277.74A35.13,35.13,0,0,1,104.89,243.39Zm120.82,35.05v17.61H286.2V278.44Zm181.4-111v56.18h17.61V167.4ZM302.41,94.93v17.61H362.9V94.93Zm-153.31,0v17.61h60.49V94.93Zm76.61,0v17.61H286.2V94.93ZM379,95.46v17.78a35.21,35.21,0,0,1,28.09,34.35v3.7h17.61v-3.7A52.63,52.63,0,0,0,379,95.46ZM407.11,239.7v3.69A35.21,35.21,0,0,1,379,277.74v17.79a52.58,52.58,0,0,0,45.7-52.14V239.7Zm-104.7,38.74v17.61H362.9V278.44Zm-153.31,0v17.61h60.49V278.44Zm-61.82-111v56.18h17.61V167.4Z"/><polygon class="cls-2" points="183.8 322.05 128.94 417.07 238.67 417.07 183.8 322.05"/><polygon class="cls-2" points="328.18 322.05 273.31 417.07 383.04 417.07 328.18 322.05"/></svg>