<svg id="Layer_1" data-name="Layer 1" xmlns="http://www.w3.org/2000/svg" viewBox="0 0 512 512"><defs><style>.cls-1{fill:#00000d;}.cls-2{fill:none;stroke:#00000d;stroke-linecap:round;stroke-linejoin:round;stroke-width:11px;}</style></defs><polygon class="cls-1" points="383.33 374.47 328.85 377.84 355.67 441.1 328.54 453.07 301.72 389.81 262.52 427.8 262.25 263.69 383.33 374.47"/><circle class="cls-2" cx="132.95" cy="376.77" r="71.73"/><circle class="cls-2" cx="379.05" cy="130.66" r="71.73"/><path class="cls-1" d="M256,176.34a77.23,77.23,0,0,0-3.64,154.37l0-11A66.28,66.28,0,1,1,309.15,293l8.15,7.46A77.2,77.2,0,0,0,256,176.34Z"/><path class="cls-1" d="M297.18,282.1l-45-41.15.1,62.59a50.11,50.11,0,1,1,44.87-21.44Z"/></svg>