<svg id="Layer_1" data-name="Layer 1" xmlns="http://www.w3.org/2000/svg" viewBox="0 0 512 512"><defs><style>.cls-1{fill:#00000d;}</style></defs><path class="cls-1" d="M311.41,319H166.9l-25.33,58.91q-9.34,21.75-9.35,30.55a20.71,20.71,0,0,0,8,16.93q8,6.48,35.23,8.4v10.18H57.9V433.75Q81.29,429.61,88.17,423q14-13.22,31.11-53.67l131.3-307.2h9.63L390.14,372.91q15.41,37.17,28.35,48.31t35.78,12.53v10.18H307V433.75q22.85-1.1,30.28-7.44t7.43-19q0-9.9-10.74-35.23Zm-7.7-20.37L240.39,147.75l-65,150.84Z"/></svg>