<svg id="Layer_1" data-name="Layer 1" xmlns="http://www.w3.org/2000/svg" viewBox="0 0 512 512"><defs><style>.cls-1{fill:#00000d;}</style></defs><path class="cls-1" d="M220.93,178.59v97.74a12.82,12.82,0,0,1-12.82,12.82h-.59a12.83,12.83,0,0,1-12.83-12.82V192a4.18,4.18,0,0,0-4.18-4.18h0a4.18,4.18,0,0,0-4.19,4.18V429.39a16.3,16.3,0,0,1-16.3,16.3h0a16.29,16.29,0,0,1-16.29-16.3V290.09a4.19,4.19,0,0,0-4.19-4.19h0a4.18,4.18,0,0,0-4.19,4.19v139.3a16.3,16.3,0,0,1-16.3,16.3h-.58a16.3,16.3,0,0,1-16.3-16.3V192a4.18,4.18,0,0,0-4.19-4.18h0a4.19,4.19,0,0,0-4.19,4.18v84.38A12.82,12.82,0,0,1,91,289.15h0a12.83,12.83,0,0,1-12.83-12.82V178.59A36.53,36.53,0,0,1,110.5,142.3l8.59-1a263.66,263.66,0,0,1,60.87,0l8.62,1A36.54,36.54,0,0,1,220.93,178.59Z"/><circle class="cls-1" cx="149.54" cy="100.5" r="34.19"/><circle class="cls-1" cx="340.67" cy="100.5" r="34.19"/><path class="cls-1" d="M423.38,290.35a13,13,0,0,1-2.4.22,12.83,12.83,0,0,1-12.36-9.47L385.19,195a4.67,4.67,0,0,0-9.18,1.22,4.83,4.83,0,0,0,.18,1.24l35,128.52a10,10,0,0,1-9.7,12.68H376.25v90.7a16.3,16.3,0,1,1-32.59,0v-90.7H333.59v90.7a16.3,16.3,0,1,1-32.59,0v-90.7H276a10,10,0,0,1-9.7-12.68l35-128.52a4.67,4.67,0,0,0-9-2.46l-23.17,85.11a12.83,12.83,0,0,1-15.75,9l-.5-.13a12.84,12.84,0,0,1-9-15.82l30-108.34a28,28,0,0,1,24-20.35L321.75,142a160.82,160.82,0,0,1,34,0l23.87,2.54a28,28,0,0,1,24,20.46L433.4,274.36A12.83,12.83,0,0,1,423.38,290.35Z"/></svg>