<svg id="Layer_1" data-name="Layer 1" xmlns="http://www.w3.org/2000/svg" viewBox="0 0 512 512"><defs><style>.cls-1{fill:#00000d;}</style></defs><path class="cls-1" d="M428,115.17,329.34,258.55c-10.45-16.32-26.4-27.52-44-31.44L389.23,87.27a23.3,23.3,0,0,1,32.28-4.94l.84.56A23.37,23.37,0,0,1,428,115.17Z"/><path class="cls-1" d="M282.41,345.13c-39.87,19.53-85.85,15.25-111.38-14.55,48.93-22.38,44.75-49.74,59.1-68.36,11.59-14.85,24-21.26,35.3-23.29a43.18,43.18,0,0,1,7.93-.71,28,28,0,0,1,2.95.1c16.78.81,31.64,10.58,40.69,24.92,1.12,1.93,2.14,3.76,3.05,5.59A45,45,0,0,1,323.2,277C331.75,305.05,311.91,330.58,282.41,345.13Z"/><path class="cls-1" d="M270.1,404.74a75.65,75.65,0,0,1-27.24,5H221.31v18.66h21.55a93.6,93.6,0,0,0,41.42-9.51ZM242.86,238.22H221.31v18.65h21.55A76.89,76.89,0,0,1,273,263l13.9-14A94.5,94.5,0,0,0,242.86,238.22ZM104.61,343.82H85.85a95.09,95.09,0,0,0,39.37,66.89l13.44-13.34A76.66,76.66,0,0,1,104.61,343.82ZM136.33,271,123,257.62a94.85,94.85,0,0,0-37.5,69.13h18.75A76.05,76.05,0,0,1,136.33,271Zm44-32.74a93.19,93.19,0,0,0-42.53,10.16l14,14a76.49,76.49,0,0,1,28.54-5.51h23.89V238.22Zm121.28,20.33-13.34,13.34a76.61,76.61,0,0,1,30.79,54.86h18.75A95.29,95.29,0,0,0,301.63,258.55Zm17.07,85.27a76.62,76.62,0,0,1-32.84,52.61l13.44,13.44a95.2,95.2,0,0,0,38.15-66.05ZM180.35,409.77a74.9,74.9,0,0,1-25.55-4.48l-14.28,14.28a93.61,93.61,0,0,0,39.83,8.86h23.89V409.77Z"/></svg>